<?xml version="1.0" encoding="iso-8859-1"?>
<!-- Uploaded to: SVG Repo, www.svgrepo.com, Generator: SVG Repo Mixer Tools -->
<!DOCTYPE svg PUBLIC "-//W3C//DTD SVG 1.1//EN" "http://www.w3.org/Graphics/SVG/1.1/DTD/svg11.dtd">
<svg fill="#000000" version="1.1" id="Capa_1" xmlns="http://www.w3.org/2000/svg" xmlns:xlink="http://www.w3.org/1999/xlink" 
	 width="800px" height="800px" viewBox="0 0 45.369 45.369"
	 xml:space="preserve">
<g>
	<g>
		<path d="M39.209,0.892H11.736c-3.401,0-6.166,2.824-6.166,6.226v0.609H5.026C2.25,7.727,0,9.998,0,12.774
			c0,2.776,2.25,5.047,5.026,5.047H5.57v9.727H5.026C2.25,27.548,0,29.819,0,32.596c0,2.774,2.25,5.047,5.026,5.047H5.57v0.644
			c0,3.399,2.765,6.191,6.166,6.191h27.463c3.402,0,6.17-2.792,6.17-6.191V7.11C45.369,3.714,42.605,0.892,39.209,0.892z
			 M38.746,36.016c0,1.306-1.059,2.362-2.363,2.362H15.609c-1.306,0-2.363-1.059-2.363-2.362V9.562c0-1.305,1.058-2.362,2.363-2.362
			h20.773c1.306,0,2.362,1.058,2.362,2.362v26.453H38.746z"/>
		<path d="M31.729,11.354H20.406c-1.552,0-2.796,1.259-2.796,2.812v0.057c0,1.553,1.244,2.811,2.796,2.811h11.323
			c1.553,0,2.812-1.258,2.812-2.811v-0.057C34.54,12.613,33.281,11.354,31.729,11.354z"/>
		<path d="M31.729,19.766H20.406c-1.552,0-2.796,1.263-2.796,2.815v0.057c0,1.553,1.244,2.807,2.796,2.807h11.323
			c1.553,0,2.812-1.254,2.812-2.807v-0.057C34.54,21.029,33.281,19.766,31.729,19.766z"/>
		<path d="M31.729,28.179H20.406c-1.552,0-2.796,1.266-2.796,2.816v0.058c0,1.554,1.244,2.804,2.796,2.804h11.323
			c1.553,0,2.812-1.25,2.812-2.804v-0.058C34.54,29.444,33.281,28.179,31.729,28.179z"/>
	</g>
</g>
</svg>