<?xml version="1.0" encoding="utf-8"?><!-- Uploaded to: SVG Repo, www.svgrepo.com, Generator: SVG Repo Mixer Tools -->
<svg fill="#000000" width="800px" height="800px" viewBox="0 0 24 24" id="notification-alert-2" data-name="Flat Color" xmlns="http://www.w3.org/2000/svg" class="icon flat-color"><path id="secondary" d="M16,18a4,4,0,0,1-8,0,1,1,0,0,1,1-1h6A1,1,0,0,1,16,18Zm3-9a1.5,1.5,0,1,0,1.5,1.5A1.5,1.5,0,0,0,19,9Zm1-3V3a1,1,0,0,0-2,0V6a1,1,0,0,0,2,0Z" style="fill: rgb(44, 169, 188);"></path><path id="primary" d="M19,13H17a1,1,0,0,1-1-1V3.81A1,1,0,0,0,15.54,3a6.9,6.9,0,0,0-4.11-1A7.17,7.17,0,0,0,5,9.24v3.35l-1,1a3.39,3.39,0,0,0-1,1.78A3.13,3.13,0,0,0,6.12,19h11.6A3.23,3.23,0,0,0,21,16a3.1,3.1,0,0,0-.74-2.09,7.84,7.84,0,0,0-.55-.58A1,1,0,0,0,19,13Z" style="fill: rgb(0, 0, 0);"></path></svg>