<?xml version="1.0" encoding="iso-8859-1"?>
<!-- Uploaded to: SVG Repo, www.svgrepo.com, Generator: SVG Repo Mixer Tools -->
<svg height="800px" width="800px" version="1.1" id="Layer_1" xmlns="http://www.w3.org/2000/svg" xmlns:xlink="http://www.w3.org/1999/xlink" 
	 viewBox="0 0 496 496" xml:space="preserve">
<circle style="fill:#5E6664;" cx="248" cy="248.8" r="241.6"/>
<path style="fill:#2F423F;" d="M419.2,78.4c94.4,94.4,94.4,247.2,0,341.6S172,514.4,77.6,420"/>
<polygon style="fill:#E5E1C7;" points="473.6,491.2 248,493.6 22.4,491.2 248,343.2 "/>
<g>
	<polyline style="fill:#DDDAC0;" points="248,343.2 473.6,491.2 248,493.6 	"/>
	<polygon style="fill:#DDDAC0;" points="112.8,180 248,122.4 383.2,180 368.8,376.8 248,436.8 127.2,376.8 	"/>
</g>
<polygon style="fill:#E5E1C7;" points="113.6,186.4 127.2,376.8 127.2,376.8 216.8,275.2 114.4,184.8 "/>
<polygon style="fill:#C6C2A7;" points="127.2,376.8 248,436.8 368.8,376.8 383.2,180 248,122.4 247.2,366.4 "/>
<polygon style="fill:#BAB69B;" points="381.6,184.8 279.2,275.2 368.8,376.8 368.8,376.8 382.4,186.4 "/>
<polygon style="fill:#5E6664;" points="192,312 160,300 160,277.6 192,289.6 "/>
<polyline style="fill:#2F423F;" points="192,292.8 192,312 160,300 "/>
<polygon style="fill:#5E6664;" points="304,312 336,300 336,277.6 304,289.6 "/>
<polyline style="fill:#2F423F;" points="304,312 336,300 336,280 "/>
<polygon style="fill:#C6C2A7;" points="8.8,2.4 0,55.2 42.4,57.6 82.4,27.2 "/>
<polygon style="fill:#DDDAC0;" points="101.6,40.8 8.8,2.4 109.6,16 200.8,99.2 226.4,175.2 156.8,184 "/>
<polygon style="fill:#C97396;" points="139.2,207.2 98.4,156.8 101.6,40.8 162.4,98.4 196.8,178.4 "/>
<polyline style="fill:#E28FAF;" points="162.4,98.4 196.8,178.4 139.2,207.2 98.4,156.8 "/>
<g>
	<polyline style="fill:#C6C2A7;" points="162.4,98.4 196.8,178.4 139.2,207.2 	"/>
	<polygon style="fill:#C6C2A7;" points="487.2,2.4 496,63.2 453.6,57.6 413.6,27.2 	"/>
</g>
<polygon style="fill:#DDDAC0;" points="394.4,40.8 487.2,2.4 386.4,16 295.2,99.2 269.6,175.2 339.2,184 "/>
<polygon style="fill:#C97396;" points="356.8,207.2 397.6,156.8 394.4,40.8 333.6,98.4 299.2,178.4 "/>
<polyline style="fill:#E28FAF;" points="333.6,98.4 299.2,178.4 356.8,207.2 397.6,156.8 "/>
<polyline style="fill:#C6C2A7;" points="333.6,98.4 299.2,178.4 356.8,207.2 "/>
<polygon style="fill:#E28FAF;" points="216.8,360 224,373.6 248,386.4 272,373.6 279.2,360 "/>
<polyline style="fill:#CC7196;" points="224,373.6 248,386.4 272,373.6 279.2,360 "/>
</svg>